<svg width="24" height="24" viewBox="0 0 24 24" fill="none" xmlns="http://www.w3.org/2000/svg">
<path d="M21.4243 6.77571L16.0243 1.37571C15.9118 1.26318 15.7591 1.19995 15.6 1.19995H4.20002C3.20751 1.19995 2.40002 2.00744 2.40002 2.99995V22.1999C2.40002 23.1925 3.20751 23.9999 4.20002 23.9999H19.8C20.7926 23.9999 21.6 23.1925 21.6 22.1999V7.19995C21.6 7.0408 21.5368 6.88821 21.4243 6.77571ZM20.1515 7.19995H16.2C15.8692 7.19995 15.6 6.93078 15.6 6.59995V2.64846L20.1515 7.19995ZM19.8 22.7999H4.20002C3.8692 22.7999 3.60002 22.5308 3.60002 22.1999V2.99995C3.60002 2.66913 3.8692 2.39995 4.20002 2.39995H14.4V6.59995C14.4 7.59246 15.2075 8.39995 16.2 8.39995H20.4V22.1999C20.4 22.5308 20.1309 22.7999 19.8 22.7999Z" fill="white"/>
<path d="M8.40002 20.4C8.24646 20.4 8.09294 20.3414 7.97575 20.2243L5.57575 17.8243C5.34145 17.59 5.34145 17.21 5.57575 16.9757L7.97575 14.5757C8.21009 14.3414 8.58996 14.3414 8.8243 14.5757C9.0586 14.81 9.0586 15.19 8.8243 15.4243L6.84854 17.4L8.8243 19.3758C9.0586 19.6101 9.0586 19.99 8.8243 20.2243C8.70711 20.3415 8.55359 20.4 8.40002 20.4V20.4Z" fill="white"/>
<path d="M11.4006 20.4001C11.3563 20.4001 11.3113 20.3952 11.2663 20.3849C10.9433 20.3111 10.7413 19.9894 10.8151 19.6663L11.9119 14.8663C11.9858 14.5433 12.3075 14.3413 12.6306 14.4151C12.9536 14.4889 13.1556 14.8107 13.0818 15.1337L11.9849 19.9337C11.9214 20.2117 11.6742 20.4001 11.4006 20.4001Z" fill="white"/>
<path d="M15.6 20.4C15.4465 20.4 15.2929 20.3414 15.1758 20.2243C14.9415 19.99 14.9415 19.61 15.1758 19.3757L17.1515 17.4L15.1758 15.4243C14.9414 15.19 14.9414 14.81 15.1758 14.5757C15.4101 14.3414 15.79 14.3414 16.0243 14.5757L18.4243 16.9757C18.6586 17.21 18.6586 17.59 18.4243 17.8243L16.0243 20.2243C15.9071 20.3414 15.7536 20.4 15.6 20.4V20.4Z" fill="white"/>
</svg>
