<svg width="24" height="24" viewBox="0 0 24 24" fill="none" xmlns="http://www.w3.org/2000/svg">
<g clip-path="url(#clip0_205_5)">
<path d="M16.9524 0.727212C16.8504 0.513612 16.7604 0.351612 16.686 0.248412C16.5012 -0.00838803 16.1472 -0.076788 15.8796 0.091212C15.612 0.259212 15.5208 0.608412 15.6732 0.886812C15.744 1.01641 15.8136 1.14481 15.882 1.27081C16.4124 2.39761 17.3232 5.07601 17.3736 7.93201C16.8204 6.73201 15.9696 5.68921 15.1956 4.73761C14.0172 3.29161 13.0008 2.04361 13.194 0.684012C13.2192 0.512412 13.1676 0.337212 13.0536 0.206412C12.9396 0.075612 12.774 1.1971e-05 12.6 1.1971e-05C11.3784 1.1971e-05 10.0812 0.956412 9.2076 1.75921C8.094 2.78161 7.0296 4.12801 6.2088 5.55001C6.09 5.75641 5.9772 5.96161 5.8716 6.16681C6.15 4.22881 6.6936 2.21401 7.1592 0.816012C7.2288 0.606012 7.2048 0.415212 7.0848 0.249612C6.972 0.093612 6.7908 1.1971e-05 6.5976 1.1971e-05C6.3756 1.1971e-05 6.174 0.122412 6.0696 0.315612C2.46 6.93241 1.1976 9.66961 1.1976 14.4C1.1976 16.9788 2.166 19.3668 3.9228 21.1248C4.8288 22.0308 5.9124 22.7388 7.1448 23.2272C8.4384 23.7408 9.8688 24.0012 11.3976 24.0012C12.9264 24.0012 14.3568 23.7408 15.6504 23.2272C16.8816 22.7388 17.9664 22.0308 18.8724 21.1248C20.6304 19.3668 21.5976 16.9788 21.5976 14.4C21.5976 9.71761 20.3232 6.92881 16.95 0.727212H16.9524ZM7.2492 6.15001C7.9992 4.84921 9.0096 3.57121 10.02 2.64241C10.7316 1.98841 11.4144 1.53361 11.9808 1.32601C12.102 2.84281 13.158 4.13761 14.2656 5.49601C16.2288 7.90561 18.084 10.182 15.5532 14.0292C15.012 14.6988 14.352 15.276 13.5744 15.7596C14.3316 14.3796 14.5872 12.7632 14.2476 11.1636C13.9932 9.96242 13.4148 8.85961 12.5772 7.97521C11.6808 7.03081 10.4952 6.35281 9.1476 6.01561C8.8644 5.94481 8.5716 6.08761 8.4528 6.35521C8.334 6.62281 8.4264 6.93481 8.6688 7.09681C9.4464 7.61521 9.8268 9.39001 9.4368 10.68C9.1692 11.5632 8.64 12.012 7.8624 12.012C7.7244 12.012 7.5768 11.9976 7.422 11.97C6.894 11.8728 6.4992 11.5944 6.2172 11.118C6.18 11.0544 6.1452 10.9884 6.1116 10.92H6.1176C5.6856 9.90242 6.0984 8.14321 7.2504 6.14761L7.2492 6.15001ZM11.4 22.8C5.4912 22.8 2.4 18.5748 2.4 14.4C2.4 11.1048 3.0276 8.88361 4.788 5.32081C4.2792 8.27041 4.4124 10.4268 5.184 11.7312C5.6472 12.5136 6.3264 12.9924 7.2048 13.152C7.4292 13.1928 7.65 13.2144 7.86 13.2144C9.1704 13.2144 10.1628 12.4176 10.5828 11.0304C10.8336 10.2012 10.8576 9.19921 10.6464 8.28121C10.614 8.13961 10.5768 8.00281 10.5348 7.87081C11.8404 8.65321 12.7512 9.89881 13.0716 11.4144C13.5108 13.4892 12.7296 15.6012 11.0304 16.9272C10.8012 17.106 10.7328 17.4228 10.8696 17.6808C11.0064 17.9388 11.3052 18.0612 11.5824 17.9724C14.556 17.022 16.614 15.2736 17.7 12.774C18.5004 10.9296 18.7548 8.73481 18.456 6.24241C19.8576 9.24361 20.4 11.3856 20.4 14.4012C20.4 18.576 17.3088 22.8012 11.4 22.8012V22.8Z" fill="white"/>
</g>
<defs>
<clipPath id="clip0_205_5">
<rect width="24" height="24" fill="white"/>
</clipPath>
</defs>
</svg>
